<?xml version="1.0" encoding="utf-8"?>
<!-- Generator: Adobe Illustrator 24.2.1, SVG Export Plug-In . SVG Version: 6.00 Build 0)  -->
<svg version="1.1" id="Capa_1" xmlns="http://www.w3.org/2000/svg" xmlns:xlink="http://www.w3.org/1999/xlink" x="0px" y="0px"
	 viewBox="0 0 1224.53 377.28" style="enable-background:new 0 0 1224.53 377.28;" xml:space="preserve">
<style type="text/css">
	.st0{fill:#81B23A;}
</style>
<g>
	<path class="st0" d="M76.81,241.04c1.12,20.82,7.15,37.35,18.12,49.62c10.96,12.26,25.37,18.4,43.21,18.4
		c11.89,0,22.39-2.69,31.5-8.08c9.1-5.38,14.96-12.91,17.56-22.58h74.71c-8.56,28.25-23.42,49.99-44.6,65.23
		c-21.18,15.24-46.47,22.86-75.82,22.86c-91.43,0-137.14-49.8-137.14-149.41c0-21.19,2.97-40.32,8.92-57.42
		c5.94-17.09,14.58-31.78,25.92-44.04c11.33-12.26,25.17-21.65,41.53-28.16c16.35-6.5,35.12-9.75,56.31-9.75
		c42.37,0,74.43,13.57,96.17,40.7c21.74,27.13,32.61,68.02,32.61,122.65H76.81z M191.09,195.33c-0.37-10.03-2.14-18.86-5.3-26.48
		c-3.16-7.61-7.35-13.94-12.54-18.96c-5.21-5.02-11.15-8.73-17.84-11.15c-6.69-2.41-13.57-3.62-20.62-3.62
		c-14.5,0-27.04,5.3-37.63,15.89c-10.59,10.59-16.64,25.36-18.12,44.32H191.09z"/>
	<path d="M535.06,260c-1.86,15.98-6.41,30.48-13.66,43.48c-7.25,13.02-16.45,24.17-27.6,33.45c-11.15,9.29-23.88,16.54-38.19,21.74
		c-14.31,5.2-29.83,7.8-46.55,7.8c-18.59,0-35.59-3.07-51.01-9.2c-15.43-6.13-28.71-15.42-39.86-27.88
		c-11.15-12.45-19.79-27.88-25.92-46.27c-6.13-18.4-9.2-39.86-9.2-64.39s3.07-45.71,9.2-63.55c6.13-17.84,14.77-32.42,25.92-43.76
		c11.15-11.33,24.62-19.79,40.42-25.36c15.79-5.58,33.35-8.36,52.68-8.36c17.84,0,34.09,2.42,48.78,7.25
		c14.68,4.83,27.5,11.9,38.47,21.18c10.96,9.29,19.6,20.44,25.92,33.45c6.32,13.02,10.03,27.51,11.15,43.49h-73.03
		c-1.86-14.12-7.53-25.18-17.01-33.17c-9.48-7.98-21.1-11.98-34.84-11.98c-7.8,0-15.05,1.31-21.74,3.9
		c-6.69,2.6-12.54,6.97-17.56,13.1c-5.02,6.13-9.02,14.31-11.99,24.53c-2.98,10.23-4.46,22.77-4.46,37.63
		c0,30.1,5.38,52.4,16.17,66.9c10.78,14.5,23.22,21.74,37.35,21.74c14.12,0,26.2-3.9,36.24-11.71
		c10.03-7.81,15.79-19.14,17.28-34.01H535.06z"/>
	<path d="M725.16,359.23c-2.23-7.05-3.72-15.24-4.46-24.53c-8.56,9.67-19.89,17.38-34.01,23.13c-14.13,5.76-30.48,8.64-49.06,8.64
		c-31.6,0-54.73-6.97-69.41-20.91c-14.68-13.94-22.02-32.05-22.02-54.36c0-19.69,3.15-35.4,9.48-47.11
		c6.31-11.71,15.05-20.9,26.2-27.6c11.15-6.69,24.43-11.61,39.86-14.77c15.42-3.15,32.24-6.04,50.45-8.64
		c18.2-2.59,30.47-6.04,36.79-10.31c6.31-4.27,9.48-11.24,9.48-20.9c0-8.92-4.18-15.89-12.54-20.91s-19.61-7.53-33.73-7.53
		c-16.73,0-28.71,3.72-35.96,11.15c-7.25,7.44-11.8,17.29-13.66,29.55h-67.46c0.37-14.12,2.69-27.13,6.97-39.02
		c4.27-11.89,11.15-22.11,20.63-30.66c9.48-8.55,21.83-15.14,37.07-19.79c15.24-4.64,33.81-6.97,55.75-6.97
		c21.55,0,39.86,2.42,54.91,7.25c15.05,4.83,27.13,11.8,36.24,20.9c9.1,9.11,15.7,20.45,19.79,34.01
		c4.09,13.57,6.13,28.9,6.13,45.99v173.38H725.16z M720.14,224.88c-3.72,3.72-9.11,6.69-16.17,8.92
		c-7.07,2.23-17.28,4.65-30.66,7.25c-20.82,4.09-35.12,9.3-42.93,15.61c-7.81,6.33-11.71,15.43-11.71,27.32
		c0,20.45,11.71,30.67,35.12,30.67c9.29,0,17.93-1.58,25.92-4.74c7.98-3.15,14.86-7.43,20.63-12.82
		c5.75-5.38,10.4-11.71,13.94-18.96c3.53-7.25,5.3-14.96,5.3-23.13L720.14,224.88z"/>
	<path d="M821.6,359.23V84.95h68.01v32.89c5.94-9.29,12.17-16.53,18.68-21.74c6.5-5.2,13.19-9.2,20.07-11.99
		c6.87-2.79,13.84-4.54,20.9-5.29c7.06-0.74,14.3-1.12,21.74-1.12h9.48v74.14c-6.69-1.12-13.38-1.67-20.07-1.67
		c-44.23,0-66.34,22.12-66.34,66.34v142.72H821.6z"/>
	<path d="M1152.74,178.6h67.46v78.05c0,14.5-2.14,28.34-6.41,41.54c-4.28,13.19-10.97,24.9-20.07,35.12
		c-9.11,10.23-20.63,18.31-34.56,24.25c-13.94,5.94-30.57,8.92-49.89,8.92c-20.07,0-37.17-2.98-51.29-8.92
		c-14.13-5.94-25.74-13.94-34.84-23.97c-9.11-10.03-15.71-21.74-19.79-35.12c-4.09-13.38-6.13-27.5-6.13-42.37V10.8h71.36v74.15
		h151.64v51.29h-151.64v112.61c0,17.47,3.25,30.94,9.76,40.42c6.5,9.48,17.18,14.22,32.05,14.22c14.5,0,25.18-4.64,32.06-13.94
		c6.87-9.29,10.31-22.48,10.31-39.58V178.6z"/>
</g>
</svg>
